<svg width="400" height="400" viewBox="0 0 400 400" xmlns="http://www.w3.org/2000/svg">
  <defs>
    <linearGradient id="bottleGradient" x1="0%" y1="0%" x2="100%" y2="100%">
      <stop offset="0%" style="stop-color:#E8F5E8;stop-opacity:1" />
      <stop offset="100%" style="stop-color:#C8E6C9;stop-opacity:1" />
    </linearGradient>
    <linearGradient id="gummyGradient1" x1="0%" y1="0%" x2="100%" y2="100%">
      <stop offset="0%" style="stop-color:#FF6B6B;stop-opacity:1" />
      <stop offset="100%" style="stop-color:#EE5A52;stop-opacity:1" />
    </linearGradient>
    <linearGradient id="gummyGradient2" x1="0%" y1="0%" x2="100%" y2="100%">
      <stop offset="0%" style="stop-color:#4ECDC4;stop-opacity:1" />
      <stop offset="100%" style="stop-color:#26A69A;stop-opacity:1" />
    </linearGradient>
    <linearGradient id="gummyGradient3" x1="0%" y1="0%" x2="100%" y2="100%">
      <stop offset="0%" style="stop-color:#FFE66D;stop-opacity:1" />
      <stop offset="100%" style="stop-color:#FFD93D;stop-opacity:1" />
    </linearGradient>
  </defs>
  
  <!-- Background -->
  <rect width="400" height="400" fill="#FAFAFA"/>
  
  <!-- Fun kid elements -->
  <g opacity="0.3">
    <circle cx="80" cy="80" r="15" fill="#FF6B6B"/>
    <circle cx="320" cy="70" r="12" fill="#4ECDC4"/>
    <path d="M 70 120 L 90 120 M 80 110 L 80 130" stroke="#FFE66D" stroke-width="3"/>
    <path d="M 310 110 L 330 110 M 320 100 L 320 120" stroke="#FF6B6B" stroke-width="3"/>
  </g>
  
  <!-- Bottle -->
  <rect x="150" y="100" width="100" height="140" rx="8" fill="url(#bottleGradient)" stroke="#E0E0E0" stroke-width="2"/>
  
  <!-- Bottle cap -->
  <rect x="160" y="80" width="80" height="30" rx="15" fill="#2D3748"/>
  
  <!-- Label with fun design -->
  <rect x="160" y="140" width="80" height="60" rx="4" fill="white" stroke="#E0E0E0"/>
  <text x="200" y="160" text-anchor="middle" font-family="Arial, sans-serif" font-size="8" font-weight="bold" fill="#2D3748">HEALIOS</text>
  <text x="200" y="175" text-anchor="middle" font-family="Arial, sans-serif" font-size="6" fill="#666">Kids Multi</text>
  <text x="200" y="188" text-anchor="middle" font-family="Arial, sans-serif" font-size="6" fill="#666">13 Vitamins</text>
  
  <!-- Colorful gummies for kids -->
  <circle cx="120" cy="280" r="16" fill="url(#gummyGradient1)"/>
  <circle cx="170" cy="300" r="16" fill="url(#gummyGradient2)"/>
  <circle cx="230" cy="290" r="16" fill="url(#gummyGradient3)"/>
  <circle cx="280" cy="310" r="16" fill="url(#gummyGradient1)"/>
  <circle cx="140" cy="340" r="16" fill="url(#gummyGradient2)"/>
  <circle cx="250" cy="340" r="16" fill="url(#gummyGradient3)"/>
  
  <!-- Alphabet blocks -->
  <g transform="translate(90, 190)">
    <rect x="0" y="0" width="20" height="20" rx="2" fill="#FF6B6B" opacity="0.6"/>
    <text x="10" y="14" text-anchor="middle" font-family="Arial, sans-serif" font-size="12" font-weight="bold" fill="white">A</text>
  </g>
  
  <g transform="translate(310, 200)">
    <rect x="0" y="0" width="20" height="20" rx="2" fill="#4ECDC4" opacity="0.6"/>
    <text x="10" y="14" text-anchor="middle" font-family="Arial, sans-serif" font-size="12" font-weight="bold" fill="white">B</text>
  </g>
  
  <!-- Happy face -->
  <g transform="translate(200, 50)">
    <circle cx="0" cy="0" r="20" fill="#FFE66D" opacity="0.4"/>
    <circle cx="-6" cy="-5" r="2" fill="#2D3748"/>
    <circle cx="6" cy="-5" r="2" fill="#2D3748"/>
    <path d="M -8 5 Q 0 12 8 5" stroke="#2D3748" stroke-width="2" fill="none"/>
  </g>
  
  <!-- Text -->
  <text x="200" y="370" text-anchor="middle" font-family="Arial, sans-serif" font-size="16" font-weight="bold" fill="#2D3748">Berry Flavour</text>
  <text x="200" y="390" text-anchor="middle" font-family="Arial, sans-serif" font-size="12" fill="#666">Ages 3+ • 13 Essential Nutrients</text>
</svg>